<svg width="137" height="138" viewBox="0 0 137 138" fill="none" xmlns="http://www.w3.org/2000/svg">
<rect x="18.5" y="13.5" width="100" height="122" rx="17.5" fill="#FEC260" stroke="#276158" stroke-width="5"/>
<path d="M93.5755 85.8717C101.294 85.8717 104.686 88.9392 106.106 91.8109C106.862 93.3406 107.135 94.9606 107.089 96.3419C107.044 97.6883 106.713 98.5178 106.522 98.8179C106.468 98.8475 106.24 98.9888 105.688 99.1794C104.945 99.4357 103.915 99.6818 102.641 99.8954C100.104 100.321 96.8655 100.574 93.6011 100.611C90.3312 100.649 87.143 100.468 84.6957 100.067C83.4639 99.865 82.5129 99.6215 81.8623 99.3665C81.5369 99.2389 81.3666 99.1396 81.292 99.0917C81.0085 98.5045 80.698 97.4273 80.6369 96.0544C80.5719 94.5929 80.7996 92.9859 81.4747 91.5158C82.7168 88.811 85.8151 85.8717 93.5755 85.8717Z" fill="white" stroke="#13041E" stroke-width="5"/>
<circle cx="93.8601" cy="73.4996" r="5.82958" fill="white" stroke="#13041E" stroke-width="5"/>
<path d="M45.4492 85.8717C53.1677 85.8717 56.56 88.9392 57.9792 91.8109C58.7352 93.3406 59.0084 94.9606 58.9624 96.3419C58.9176 97.6883 58.5867 98.5178 58.3957 98.8179C58.3416 98.8475 58.1137 98.9888 57.5614 99.1794C56.8187 99.4357 55.7889 99.6818 54.5147 99.8954C51.9777 100.321 48.7392 100.574 45.4747 100.611C42.2048 100.649 39.0167 100.468 36.5693 100.067C35.3376 99.865 34.3865 99.6215 33.736 99.3665C33.4105 99.2389 33.2403 99.1396 33.1657 99.0917C32.8821 98.5045 32.5717 97.4273 32.5106 96.0544C32.4456 94.5929 32.6733 92.9859 33.3484 91.5158C34.5905 88.811 37.6888 85.8717 45.4492 85.8717Z" fill="white" stroke="#13041E" stroke-width="5"/>
<circle cx="45.5613" cy="73.4996" r="5.82958" fill="white" stroke="#13041E" stroke-width="5"/>
<path d="M69.7242 79.7017C73.3629 79.7017 75.9723 80.9078 77.8977 82.708C79.8745 84.5561 81.2618 87.1595 82.1373 90.0951C83.0101 93.0214 83.3314 96.1386 83.2773 98.8352C83.2214 101.617 82.7739 103.633 82.3566 104.491C82.3567 104.491 82.3567 104.491 82.3566 104.491C82.3551 104.494 82.3148 104.57 82.1679 104.707C82.016 104.848 81.7827 105.023 81.4438 105.216C80.7579 105.609 79.788 105.996 78.5581 106.337C76.1043 107.019 72.9403 107.431 69.7311 107.492C66.5136 107.553 63.415 107.258 61.0717 106.621C59.898 106.302 59.019 105.925 58.4283 105.542C57.834 105.156 57.6961 104.874 57.6669 104.787C56.7521 102.067 56.1121 95.4815 57.7241 89.665C58.5179 86.8008 59.8058 84.3172 61.6836 82.5668C63.5098 80.8645 66.0543 79.7017 69.7242 79.7017Z" fill="white" stroke="#13041E" stroke-width="5"/>
<circle cx="69.7968" cy="67.3296" r="5.82958" fill="white" stroke="#13041E" stroke-width="5"/>
<path d="M19.5 12.1429C19.5 6.81725 23.8173 2.5 29.1429 2.5H108.857C114.183 2.5 118.5 6.81726 118.5 12.1429C118.5 13.4447 117.445 14.5 116.143 14.5H21.8571C20.5553 14.5 19.5 13.4447 19.5 12.1429Z" fill="#A3073A" stroke="#352442" stroke-width="5"/>
<path d="M17.0007 21.8289C17.4342 21.0112 18.2839 20.5 19.2094 20.5H118.232C119.169 20.5 120.027 21.0235 120.455 21.8564L132.703 45.6672C133.319 46.8641 132.837 48.0361 131.948 48.4607C129.129 49.8067 125.353 51.2202 121.855 51.3719C118.489 51.5179 115.688 50.5233 113.914 47.3381C111.995 43.8936 108.419 42.175 104.647 41.3753C100.848 40.5698 96.4147 40.5946 92.08 41.0008C83.3881 41.8152 74.4497 44.2312 70.3506 45.4427C69.57 45.6734 68.6633 45.5722 67.8497 45.1266C64.8342 43.4751 58.9235 40.6683 52.1828 39.844C45.3751 39.0115 37.5124 40.1943 31.1198 46.8186C26.5631 51.5404 21.5157 52.7581 16.8553 52.4573C12.0901 52.1498 7.69344 50.2401 4.77456 48.6246C4.00219 48.1971 3.58929 47.1221 4.19055 45.9881L17.0007 21.8289Z" fill="#A3073A" stroke="#352442" stroke-width="5"/>
<rect x="17" y="14" width="104" height="6" rx="3" fill="#276158"/>
</svg>
