<svg width="250" height="284" viewBox="0 0 250 284" fill="none" xmlns="http://www.w3.org/2000/svg">
<circle cx="30" cy="30" r="30" fill="#A10035"/>
<path d="M205.559 102.592C205.559 119.068 214.052 136.659 221.641 151.676C222.463 153.303 223.278 154.906 224.08 156.485C231.281 170.649 237.51 182.9 239.439 193.645C240.448 199.271 240.065 203.566 238.549 207.001C237.075 210.342 234.025 214.019 227.508 217.525C213.844 224.876 187.49 230.127 140 230.127C92.4921 230.127 66.1104 224.997 52.426 217.767C45.8983 214.318 42.8785 210.712 41.4296 207.473C39.9411 204.147 39.552 199.958 40.5587 194.4C42.455 183.93 48.5023 171.988 55.5628 158.045C56.4836 156.227 57.4216 154.374 58.3698 152.487C65.9975 137.303 74.4412 119.519 74.4412 102.592C74.4412 76.301 82.1953 61.3285 92.8926 52.6029C103.991 43.5504 120.154 39.6338 140 39.6338C159.63 39.6338 175.845 43.954 187.024 53.2741C197.866 62.3128 205.559 77.3953 205.559 102.592Z" stroke="#13041E" stroke-width="20"/>
<path d="M112.064 210.5C66 210.5 58.5645 200 58.5645 200C53.0644 183 89.5643 144 89.5643 107.5C89.5642 71 110.5 57 121.5 57C132.501 57 134.565 73.4999 121.5 134.5C112.062 173.313 120.756 210.5 112.064 210.5Z" fill="#13041E"/>
<ellipse cx="139.535" cy="264.282" rx="20.2842" ry="19.7183" fill="#13041E"/>
<path d="M159.819 19.7746C159.819 30.6648 152.212 22.7324 140.549 22.7324C128.886 22.7324 119.251 30.6648 119.251 19.7746C119.251 8.88453 133.45 4 140.549 4C147.649 4 159.819 8.88453 159.819 19.7746Z" fill="#13041E"/>
</svg>
