<svg width="235" height="280" viewBox="0 0 235 280" fill="none" xmlns="http://www.w3.org/2000/svg">
<path d="M190.559 98.5915C190.559 115.068 199.052 132.659 206.641 147.676C207.463 149.303 208.278 150.906 209.08 152.485C216.281 166.649 222.51 178.9 224.439 189.645C225.448 195.271 225.065 199.566 223.549 203.001C222.075 206.342 219.025 210.019 212.508 213.525C198.844 220.876 172.49 226.127 125 226.127C77.4921 226.127 51.1104 220.997 37.426 213.767C30.8983 210.318 27.8785 206.712 26.4296 203.473C24.9412 200.147 24.552 195.958 25.5587 190.4C27.455 179.93 33.5023 167.988 40.5628 154.045C41.4836 152.227 42.4216 150.374 43.3698 148.487C50.9975 133.303 59.4412 115.519 59.4412 98.5915C59.4412 72.301 67.1953 57.3285 77.8926 48.6029C88.9907 39.5504 105.154 35.6338 125 35.6338C144.63 35.6338 160.845 39.954 172.024 49.2741C182.866 58.3128 190.559 73.3953 190.559 98.5915Z" stroke="#FFF4E1" stroke-width="20"/>
<ellipse cx="124.535" cy="260.282" rx="20.2842" ry="19.7183" fill="#FFF4E1"/>
<path d="M144.819 15.7746C144.819 26.6648 137.212 18.7324 125.549 18.7324C113.885 18.7324 104.25 26.6648 104.25 15.7746C104.25 4.88453 118.449 0 125.549 0C132.648 0 144.819 4.88453 144.819 15.7746Z" fill="#FFF4E1"/>
<circle cx="15" cy="26" r="15" fill="#A10035"/>
</svg>
